<svg width="46" height="47" viewBox="0 0 46 47" fill="none" xmlns="http://www.w3.org/2000/svg">
<g id="check (1) 1" clip-path="url(#clip0_6_312)">
<g id="Group">
<g id="Group_2">
<path id="Vector" d="M36.473 23.3475C36.3704 23.3154 36.2715 23.3072 36.1758 23.3231C35.9699 23.3571 35.8015 23.4662 35.6696 23.6508L34.4019 25.4206C34.2835 25.5867 34.2409 25.7723 34.2749 25.9781L35.2718 32.0054C35.4445 33.0498 35.2213 34.0046 34.6003 34.8715C33.9797 35.738 33.1472 36.2577 32.1029 36.4304L12.3586 39.6958C11.3143 39.8686 10.3589 39.6446 9.49238 39.0241C8.62569 38.4032 8.1063 37.5712 7.93356 36.5268L4.66816 16.7829C4.49548 15.7387 4.71927 14.7834 5.33993 13.9167C5.96045 13.0501 6.79293 12.5306 7.83724 12.3578L27.5817 9.09235C27.9299 9.03478 28.2936 9.02338 28.6731 9.05821C28.7733 9.07392 28.8471 9.07819 28.894 9.07044C29.1 9.03637 29.269 8.92739 29.4009 8.74307L30.3714 7.38791C30.5298 7.16694 30.5633 6.92555 30.471 6.66474C30.3816 6.41941 30.209 6.26095 29.9534 6.18957C29.0342 5.93579 28.0755 5.89053 27.0788 6.05537L7.33494 9.32076C5.45229 9.63212 3.95298 10.5668 2.8372 12.1248C1.7216 13.6829 1.31936 15.4031 1.63075 17.2858L4.89622 37.0302C5.20755 38.9126 6.14223 40.4118 7.70014 41.5276C9.2582 42.6438 10.9786 43.0459 12.8613 42.7346L32.6055 39.4691C34.4879 39.1578 35.9874 38.2231 37.1031 36.6647C38.219 35.1067 38.6218 33.3864 38.3105 31.5039L37.0623 23.9569C37.0072 23.625 36.8103 23.422 36.473 23.3475Z" fill="#333333"/>
<path id="Vector_2" d="M40.1771 8.74065L37.1347 6.56173C36.6922 6.24492 36.2096 6.1297 35.6874 6.21607C35.1658 6.30233 34.7457 6.56685 34.4291 7.00919L21.6142 24.9028L14.341 19.6936C13.8984 19.3766 13.4161 19.2616 12.8942 19.3479C12.3722 19.4342 11.9527 19.6984 11.6356 20.1411L9.457 23.1832C9.14011 23.6256 9.02469 24.1081 9.11106 24.6303C9.19739 25.1523 9.46197 25.5717 9.90448 25.8888L21.7965 34.4054C22.2391 34.7225 22.7214 34.8375 23.2433 34.7511C23.7652 34.6648 24.1848 34.4008 24.5018 33.958L40.6243 11.446C40.941 11.0036 41.0566 10.5211 40.9703 9.99907C40.8839 9.47708 40.6196 9.05746 40.1771 8.74065Z" fill="#333333"/>
</g>
</g>
</g>
<defs>
<clipPath id="clip0_6_312">
<rect width="40.0012" height="40.0012" fill="white" transform="translate(0 7.42548) rotate(-9.391)"/>
</clipPath>
</defs>
</svg>
