<svg width="16" height="16" viewBox="0 0 16 16" fill="none" xmlns="http://www.w3.org/2000/svg">
<g id="close (1) 1">
<path id="Vector" d="M1.14747 1.1475C1.19391 1.10102 1.24905 1.06414 1.30975 1.03897C1.37045 1.01381 1.43551 1.00086 1.50122 1.00086C1.56693 1.00086 1.63199 1.01381 1.69269 1.03897C1.75339 1.06414 1.80853 1.10102 1.85497 1.1475L7.99997 7.2925L14.1475 1.1475C14.2413 1.05368 14.3685 1.00098 14.5012 1.00098C14.6339 1.00098 14.7611 1.05368 14.855 1.1475C14.9488 1.24132 15.0015 1.36857 15.0015 1.50125C15.0015 1.63394 14.9488 1.76118 14.855 1.855L8.70747 8L14.8525 14.1475C14.9463 14.2413 14.999 14.3686 14.999 14.5012C14.999 14.6339 14.9463 14.7612 14.8525 14.855C14.7586 14.9488 14.6314 15.0015 14.4987 15.0015C14.366 15.0015 14.2388 14.9488 14.145 14.855L7.99997 8.7075L1.85247 14.8525C1.75682 14.9344 1.63378 14.9772 1.50794 14.9724C1.38211 14.9675 1.26274 14.9153 1.17369 14.8263C1.08464 14.7372 1.03248 14.6179 1.02762 14.492C1.02276 14.3662 1.06556 14.2431 1.14747 14.1475L7.29247 8L1.14747 1.8525C1.05435 1.75882 1.00208 1.6321 1.00208 1.5C1.00208 1.36791 1.05435 1.24119 1.14747 1.1475Z" fill="#333333"/>
</g>
</svg>
